<svg width="40" height="48" viewBox="0 0 40 48" fill="none" xmlns="http://www.w3.org/2000/svg">
<path fill-rule="evenodd" clip-rule="evenodd" d="M0.783203 9.15044C0.783203 4.43388 4.60673 0.610352 9.32329 0.610352H27.1361C29.401 0.610352 31.5733 1.51011 33.1748 3.11168L36.7123 6.64911C38.3138 8.25068 39.2136 10.4229 39.2136 12.6879V39.0407C39.2136 43.7573 35.3901 47.5808 30.6735 47.5808H9.32329C4.60673 47.5808 0.783203 43.7573 0.783203 39.0407V9.15044ZM34.9435 15.5555V39.0407C34.9435 41.399 33.0318 43.3108 30.6735 43.3108H9.32329C6.96501 43.3108 5.05325 41.399 5.05325 39.0407V9.15044C5.05325 6.79216 6.96501 4.88039 9.32329 4.88039H24.2684V9.15044C24.2684 12.6879 27.1361 15.5555 30.6735 15.5555H34.9435ZM34.7067 11.2855C34.497 10.6825 34.1528 10.1284 33.6929 9.66848L30.1555 6.13106C29.6955 5.6711 29.1414 5.32692 28.5385 5.11725V9.15044C28.5385 10.3296 29.4944 11.2855 30.6735 11.2855H34.7067Z" fill="#141416"/>
<path d="M19.1818 17.8515C18.93 17.9556 18.6941 18.1101 18.4894 18.3148L12.0843 24.7198C11.2505 25.5536 11.2505 26.9054 12.0843 27.7392C12.9181 28.573 14.2699 28.573 15.1037 27.7392L17.864 24.9789V34.7696C17.864 35.9488 18.8199 36.9046 19.9991 36.9046C21.1782 36.9046 22.1341 35.9488 22.1341 34.7696V24.9789L24.8944 27.7392C25.7282 28.573 27.08 28.573 27.9138 27.7392C28.7476 26.9054 28.7476 25.5536 27.9138 24.7198L21.5088 18.3148C20.8797 17.6857 19.9557 17.5313 19.1818 17.8515Z" fill="#141416"/>
</svg>
